# xmcd
#
# Track frame offsets:
#	150
#	12936
#	25466
#	46354
#	60485
#	76441
#	91136
#	109451
#	129047
#	144021
#	165401
#	180559
#	198784
#
# Disc length: 2873 seconds
#
# Revision: 0
# Processed by: cddbd v1.5.2PL0 Copyright (c) Steve Scherf et al.
# Submitted via: EZCDAudioConverter 1.0.6.1
#
DISCID=980b370d
DTITLE=Terry and the Zydeco Bad Boys - Back on Track
DYEAR=1900
DGENRE=blues
TTITLE0=We bad
TTITLE1=Jolie catin
TTITLE2=Everyday will be like a holiday
TTITLE3=Give it up
TTITLE4=Loan me your handkerchief
TTITLE5=Oh bye bye
TTITLE6=You bother me
TTITLE7=Ton Na Na
TTITLE8=He haw breakdown
TTITLE9=Pretty girl
TTITLE10=Think of me
TTITLE11=Wanna be a bull
TTITLE12=Free me
EXTD=
EXTT0=
EXTT1=
EXTT2=
EXTT3=
EXTT4=
EXTT5=
EXTT6=
EXTT7=
EXTT8=
EXTT9=
EXTT10=
EXTT11=
EXTT12=
PLAYORDER=
